<?xml version="1.0" encoding="UTF-8" standalone="no"?>
<!-- Created with Inkscape (http://www.inkscape.org/) -->

<svg
   xmlns:dc="http://purl.org/dc/elements/1.1/"
   xmlns:cc="http://creativecommons.org/ns#"
   xmlns:rdf="http://www.w3.org/1999/02/22-rdf-syntax-ns#"
   xmlns:svg="http://www.w3.org/2000/svg"
   xmlns="http://www.w3.org/2000/svg"
   xmlns:sodipodi="http://sodipodi.sourceforge.net/DTD/sodipodi-0.dtd"
   xmlns:inkscape="http://www.inkscape.org/namespaces/inkscape"
   id="svg4585"
   version="1.1"
   inkscape:version="0.92.4 (5da689c313, 2019-01-14)"
   xml:space="preserve"
   width="512"
   height="512"
   viewBox="0 0 512 512"
   sodipodi:docname="stories.svg"><metadata
     id="metadata4591"><rdf:RDF><cc:Work
         rdf:about=""><dc:format>image/svg+xml</dc:format><dc:type
           rdf:resource="http://purl.org/dc/dcmitype/StillImage" /><dc:title></dc:title></cc:Work></rdf:RDF></metadata><defs
     id="defs4589"><clipPath
       clipPathUnits="userSpaceOnUse"
       id="clipPath4599"><path
         d="M 0,612 H 792 V 0 H 0 Z"
         id="path4601"
         inkscape:connector-curvature="0" /></clipPath><clipPath
       id="clipPath4599-5"
       clipPathUnits="userSpaceOnUse"><path
         inkscape:connector-curvature="0"
         id="path4601-3"
         d="M 0,612 H 792 V 0 H 0 Z" /></clipPath></defs><sodipodi:namedview
     pagecolor="#ffffff"
     bordercolor="#666666"
     borderopacity="1"
     objecttolerance="10"
     gridtolerance="10"
     guidetolerance="10"
     inkscape:pageopacity="0"
     inkscape:pageshadow="2"
     inkscape:window-width="2560"
     inkscape:window-height="1312"
     id="namedview4587"
     showgrid="false"
     fit-margin-top="0"
     fit-margin-left="0"
     fit-margin-right="0"
     fit-margin-bottom="0"
     inkscape:zoom="1.1352378"
     inkscape:cx="90.930283"
     inkscape:cy="249.94119"
     inkscape:window-x="0"
     inkscape:window-y="54"
     inkscape:window-maximized="1"
     inkscape:current-layer="layer1"
     showborder="false"
     inkscape:showpageshadow="false"
     inkscape:pagecheckerboard="true" /><g
     inkscape:groupmode="layer"
     id="layer1"
     inkscape:label="BG"
     style="display:inline"><g
       id="g883"
       transform="matrix(8.0381849,0,0,-8.0381849,-2113.1875,2853.787)"
       style="stroke-width:0.15550774"><g
         id="g1174"
         transform="matrix(1.4310811,0,0,1.4310811,-121.1055,-140.30274)"
         style="stroke-width:0.10866452"><path
           transform="matrix(0.1244062,0,0,-0.1244062,262.89362,355.02878)"
           id="path4605-1-0"
           d="m 127.47461,142.91016 a 11.737228,11.737228 0 0 0 -1.7832,0.14453 l -0.002,-0.01 -58.917966,7.09375 c -10.664018,1.2841 -18.260019,10.96929 -16.976562,21.62695 l 23.699219,196.81836 c 1.283376,10.65759 10.963014,18.26262 21.626953,16.97852 l 27.406246,-3.30078 a 11.737228,11.737228 0 0 0 9.92774,-11.57617 11.737228,11.737228 0 0 0 -11.73633,-11.73633 11.737228,11.737228 0 0 0 -0.86328,0.0469 l -23.589845,2.83985 -22.751953,-188.92578 56.199218,-6.76758 a 11.737228,11.737228 0 0 0 9.49805,-11.4961 11.737228,11.737228 0 0 0 -11.73633,-11.73632 z"
           style="fill:#ffffff;fill-opacity:1;fill-rule:nonzero;stroke:none;stroke-width:0.87346554"
           inkscape:connector-curvature="0" /><g
           transform="rotate(-6.8503045,295.36364,312.78789)"
           style="fill:#ffffff;stroke-width:0.10866452"
           id="g882"><path
             inkscape:connector-curvature="0"
             transform="matrix(0.1244062,0,0,-0.1244062,262.89362,355.02878)"
             id="path4605"
             d="m 156.88281,137.4375 c -10.74102,0 -19.4414,8.70877 -19.4414,19.44336 v 198.23828 c 0,10.73459 8.70038,19.44336 19.4414,19.44336 h 198.23438 c 10.74094,0 19.4414,-8.70877 19.4414,-19.44336 V 156.88086 c 0,-10.73459 -8.70046,-19.44336 -19.4414,-19.44336 z m 3.97266,23.41406 h 190.28906 v 41.24024 h -49.72851 c -3.36362,-0.38575 -6.80753,0.70461 -9.36524,3.10937 l -86.0039,80.94336 c -1.87689,1.76391 -3.06603,4.04877 -3.4961,6.47852 -0.25259,0.95623 -0.40039,1.95498 -0.40039,2.99023 v 55.5293 h -41.29492 z m 150.93164,64.6543 h 39.35742 V 351.14258 H 225.57031 v -44.77344 h 74.50586 c 6.46375,0 11.71094,-5.23938 11.71094,-11.70312 z m -23.41992,15.31445 v 42.13672 H 243.5918 Z"
             style="fill:#ffffff;fill-opacity:1;fill-rule:nonzero;stroke:none;stroke-width:0.87346554" /></g></g></g></g></svg>