<?xml version="1.0" encoding="UTF-8" standalone="no"?>
<!-- Created with Inkscape (http://www.inkscape.org/) -->

<svg
   xmlns:dc="http://purl.org/dc/elements/1.1/"
   xmlns:cc="http://creativecommons.org/ns#"
   xmlns:rdf="http://www.w3.org/1999/02/22-rdf-syntax-ns#"
   xmlns:svg="http://www.w3.org/2000/svg"
   xmlns="http://www.w3.org/2000/svg"
   xmlns:sodipodi="http://sodipodi.sourceforge.net/DTD/sodipodi-0.dtd"
   xmlns:inkscape="http://www.inkscape.org/namespaces/inkscape"
   id="svg4585"
   version="1.1"
   inkscape:version="0.92.4 (5da689c313, 2019-01-14)"
   xml:space="preserve"
   width="512"
   height="512"
   viewBox="0 0 512 512"
   sodipodi:docname="icon.svg"><metadata
     id="metadata4591"><rdf:RDF><cc:Work
         rdf:about=""><dc:format>image/svg+xml</dc:format><dc:type
           rdf:resource="http://purl.org/dc/dcmitype/StillImage" /><dc:title></dc:title></cc:Work></rdf:RDF></metadata><defs
     id="defs4589"><clipPath
       clipPathUnits="userSpaceOnUse"
       id="clipPath4599"><path
         d="M 0,612 H 792 V 0 H 0 Z"
         id="path4601"
         inkscape:connector-curvature="0" /></clipPath></defs><sodipodi:namedview
     pagecolor="#ffffff"
     bordercolor="#666666"
     borderopacity="1"
     objecttolerance="10"
     gridtolerance="10"
     guidetolerance="10"
     inkscape:pageopacity="0"
     inkscape:pageshadow="2"
     inkscape:window-width="2560"
     inkscape:window-height="1312"
     id="namedview4587"
     showgrid="false"
     fit-margin-top="0"
     fit-margin-left="0"
     fit-margin-right="0"
     fit-margin-bottom="0"
     inkscape:zoom="0.87256054"
     inkscape:cx="440.68041"
     inkscape:cy="99.756549"
     inkscape:window-x="0"
     inkscape:window-y="54"
     inkscape:window-maximized="1"
     inkscape:current-layer="g4593" /><g
     id="g4593"
     inkscape:groupmode="layer"
     inkscape:label="2_ hf_final_logo_outline"
     transform="matrix(1.25,0,0,-1.25,-328.61724,876.16608)"><g
       id="g883"
       transform="matrix(6.4305479,0,0,6.4305479,-1427.6562,-1582.0967)"
       style="stroke-width:0.15550774"><rect
         transform="scale(1,-1)"
         y="-355.02878"
         x="262.89362"
         height="63.695972"
         width="63.695972"
         id="rect856"
         style="opacity:1;fill:#f4971e;fill-opacity:1;stroke:none;stroke-width:3.88617516;stroke-linecap:round;stroke-miterlimit:4;stroke-dasharray:none;stroke-opacity:1" /><rect
         transform="scale(1,-1)"
         y="-339.87466"
         x="278.04773"
         height="33.387711"
         width="33.387711"
         id="rect856-7"
         style="opacity:1;fill:#ffffff;fill-opacity:1;stroke:none;stroke-width:3.88617516;stroke-linecap:round;stroke-miterlimit:4;stroke-dasharray:none;stroke-opacity:1" /><g
         style="fill:#000000;stroke-width:0.15550774"
         transform="translate(310.2906,341.7803)"
         id="g4603"><path
           inkscape:connector-curvature="0"
           id="path4605"
           style="fill:#000000;fill-opacity:1;fill-rule:nonzero;stroke:none;stroke-width:0.15550774"
           d="m 0,0 h -31.098 c -1.685,0 -3.05,-1.366 -3.05,-3.05 v -31.099 c 0,-1.684 1.365,-3.05 3.05,-3.05 H 0 c 1.685,0 3.05,1.366 3.05,3.05 V -3.05 C 3.05,-1.366 1.685,0 0,0 m -0.623,-33.525 h -29.852 v 29.852 h 29.852 z" /></g><g
         style="fill:#000000;stroke-width:0.15550774"
         transform="translate(310.9228,327.9647)"
         id="g4607"><path
           inkscape:connector-curvature="0"
           id="path4609"
           style="fill:#000000;fill-opacity:1;fill-rule:nonzero;stroke:none;stroke-width:0.15550774"
           d="m 0,0 h -9.118 c -1.014,0 -1.836,0.822 -1.836,1.837 0,1.014 0.822,1.836 1.836,1.836 H 0 C 1.014,3.673 1.837,2.851 1.837,1.837 1.837,0.822 1.014,0 0,0" /></g><g
         style="fill:#000000;stroke-width:0.15550774"
         transform="translate(288.131,305.7684)"
         id="g4611"><path
           inkscape:connector-curvature="0"
           id="path4613"
           style="fill:#000000;fill-opacity:1;fill-rule:nonzero;stroke:none;stroke-width:0.15550774"
           d="m 0,0 c -1.014,0 -1.837,0.822 -1.837,1.837 v 9.361 c 0,1.014 0.823,1.837 1.837,1.837 1.014,0 1.837,-0.823 1.837,-1.837 V 1.837 C 1.837,0.822 1.014,0 0,0" /></g><g
         style="fill:#000000;stroke-width:0.15550774"
         transform="translate(292.7952,318.952)"
         id="g4615"><path
           inkscape:connector-curvature="0"
           id="path4617"
           style="fill:#000000;fill-opacity:1;fill-rule:nonzero;stroke:none;stroke-width:0.15550774"
           d="M 0,0 H 7.024 V 6.61 Z M 8.861,-3.673 H -4.631 c -0.753,0 -1.429,0.46 -1.707,1.159 -0.278,0.701 -0.1,1.499 0.448,2.014 L 7.602,12.198 c 0.535,0.503 1.317,0.639 1.987,0.349 0.673,-0.291 1.109,-0.953 1.109,-1.686 V -1.837 c 0,-1.014 -0.823,-1.836 -1.837,-1.836" /></g></g></g></svg>