<?xml version="1.0" encoding="UTF-8" standalone="no"?>
<svg
   xmlns:dc="http://purl.org/dc/elements/1.1/"
   xmlns:cc="http://creativecommons.org/ns#"
   xmlns:rdf="http://www.w3.org/1999/02/22-rdf-syntax-ns#"
   xmlns:svg="http://www.w3.org/2000/svg"
   xmlns="http://www.w3.org/2000/svg"
   xmlns:sodipodi="http://sodipodi.sourceforge.net/DTD/sodipodi-0.dtd"
   xmlns:inkscape="http://www.inkscape.org/namespaces/inkscape"
   version="1.1"
   viewBox="0 0 63.999998 63.999998"
   enable-background="new 0 0 455.881 455.881"
   id="svg32"
   sodipodi:docname="lightbulb.svg"
   width="64"
   height="64"
   inkscape:version="0.92.4 (5da689c313, 2019-01-14)">
  <metadata
     id="metadata38">
    <rdf:RDF>
      <cc:Work
         rdf:about="">
        <dc:format>image/svg+xml</dc:format>
        <dc:type
           rdf:resource="http://purl.org/dc/dcmitype/StillImage" />
        <dc:title></dc:title>
      </cc:Work>
    </rdf:RDF>
  </metadata>
  <defs
     id="defs36" />
  <sodipodi:namedview
     pagecolor="#ffffff"
     bordercolor="#666666"
     borderopacity="1"
     objecttolerance="10"
     gridtolerance="10"
     guidetolerance="10"
     inkscape:pageopacity="0"
     inkscape:pageshadow="2"
     inkscape:window-width="2560"
     inkscape:window-height="1312"
     id="namedview34"
     showgrid="false"
     inkscape:zoom="5.8568686"
     inkscape:cx="63.100737"
     inkscape:cy="28.647885"
     inkscape:window-x="0"
     inkscape:window-y="54"
     inkscape:window-maximized="1"
     inkscape:current-layer="g30"
     inkscape:pagecheckerboard="true" />
  <g
     id="g30"
     transform="matrix(0.14038782,0,0,0.14038782,-5.5733965,6.184e-7)">
    <path
       d="m 343.88592,281.52622 c 20.44233,-15.53928 34.90275,-36.85917 41.81885,-61.65573 8.47969,-30.4026 4.5049,-62.22854 -11.19241,-89.61564 -15.69479,-27.38122 -41.1719,-46.909851 -71.70086,-54.951385 -29.58266,-7.801478 -60.64185,-3.720796 -87.45633,11.490482 -26.81325,15.210583 -46.25394,39.776833 -54.74108,69.171363 -7.27565,25.1998 -6.00879,51.362 3.66298,75.65971 15.70114,39.44442 18.23108,83.10218 7.12229,122.93099 l -12.15522,43.58062 c -5.39173,19.33117 5.94861,39.44431 25.27978,44.83603 l 32.60937,9.0952 c 19.33116,5.39172 39.44458,-5.94958 44.83603,-25.27979 l 12.15442,-43.57772 c 11.23254,-40.26875 35.2599,-75.45831 69.76218,-101.68413 z M 178.21363,226.07828 c -8.42902,-21.17503 -9.5316,-43.98069 -3.18878,-65.95138 15.23946,-52.78127 70.84776,-84.326326 123.96124,-70.318914 26.63942,7.045974 48.83034,24.037464 62.51139,47.907584 13.68576,23.87558 17.15092,51.62161 9.75849,78.12599 -6.02925,21.61693 -18.63244,40.20121 -36.44778,53.74384 -36.35372,27.6342 -62.06856,64.53014 -74.50127,106.84258 l -73.72218,-20.56212 c 11.12814,-42.23197 8.18113,-88.20593 -8.37111,-129.78758 z m -3.15537,171.19211 1.6313,-5.84876 71.46999,29.0501 -0.63779,2.28672 c -0.33583,1.20405 -0.78828,2.34234 -1.30668,3.43421 z m 5.68752,-20.39169 1.8293,-6.55867 73.82909,20.59194 -4.1884,15.01684 z m 7.80776,51.6464 c -7.76079,-2.16459 -13.32392,-8.36722 -15.06642,-15.70202 l 60.20594,24.47158 c -3.91879,1.31659 -8.25601,1.51671 -12.52892,0.32494 l -32.61033,-9.09546 z"
       id="path2"
       inkscape:connector-curvature="0"
       style="fill:#ffffff;stroke:#ffffff;stroke-width:3.13417503;stroke-miterlimit:4;stroke-dasharray:none" />
    <path
       d="m 198.54267,179.38105 c 0.49099,-3.93786 1.30548,-7.89658 2.42275,-11.76463 1.14939,-3.97951 -1.14508,-8.13678 -5.12459,-9.28617 -3.95308,-1.13994 -8.13678,1.14508 -9.28617,5.12459 -1.33464,4.62134 -2.30935,9.35552 -2.89709,14.07202 -0.46536,3.73427 1.89887,7.16871 5.41853,8.15039 0.35447,0.0989 0.72101,0.17307 1.09727,0.21987 4.10983,0.51093 7.85714,-2.40554 8.3693,-6.51607 z"
       id="path4"
       inkscape:connector-curvature="0"
       style="fill:#ffffff;stroke:#ffffff;stroke-width:3.13417503;stroke-miterlimit:4;stroke-dasharray:none" />
    <path
       d="m 210.45077,300.97256 c 0.74747,0.20848 1.5412,0.3032 2.35911,0.2666 4.13797,-0.18926 7.33911,-3.69721 7.14959,-7.83422 -1.21551,-26.5808 -6.82114,-52.59314 -16.66178,-77.31273 -1.62602,-4.08607 -2.89893,-8.31035 -3.78158,-12.5566 -0.84341,-4.05569 -4.81518,-6.65843 -8.87088,-5.81503 -4.05473,0.84368 -6.65843,4.81518 -5.81503,8.87088 1.06039,5.09416 2.58432,10.1567 4.53163,15.04872 9.2215,23.1651 14.47492,47.54065 15.61383,72.44939 0.15168,3.3198 2.43899,6.03617 5.47511,6.88299 z"
       id="path6"
       inkscape:connector-curvature="0"
       style="fill:#ffffff;stroke:#ffffff;stroke-width:3.13417503;stroke-miterlimit:4;stroke-dasharray:none" />
    <path
       d="m 342.02007,234.34846 c -3.22381,-2.60072 -7.94634,-2.09487 -10.5461,1.12921 -3.77111,4.6768 -8.14701,8.92018 -13.00564,12.61261 -3.29756,2.50622 -3.93839,7.21207 -1.43216,10.50962 1.029,1.35424 2.42921,2.25971 3.95016,2.68392 2.18366,0.60905 4.61614,0.22546 6.55973,-1.25272 5.82201,-4.42557 11.07127,-9.51855 15.60322,-15.13654 2.60072,-3.22382 2.09584,-7.94607 -1.12921,-10.5461 z"
       id="path8"
       inkscape:connector-curvature="0"
       style="fill:#ffffff;stroke:#ffffff;stroke-width:3.13417503;stroke-miterlimit:4;stroke-dasharray:none" />
    <path
       d="m 293.1596,116.20305 c 39.8317,11.1096 63.19835,52.55397 52.08875,92.38567 -0.63162,2.26457 -1.3721,4.51746 -2.20083,6.6959 -1.47232,3.87179 0.47146,8.20325 4.34298,9.67654 0.21879,0.0828 0.43834,0.15548 0.65989,0.21727 3.69208,1.02977 7.62715,-0.90725 9.01665,-4.56025 0.99019,-2.60474 1.87571,-5.29577 2.62984,-7.99957 13.33168,-47.79862 -14.70877,-97.5324 -62.50739,-110.86409 -3.98972,-1.11278 -8.12643,1.2196 -9.23921,5.20932 -1.11279,3.98972 1.2196,8.12643 5.20932,9.23921 z"
       id="path10"
       inkscape:connector-curvature="0"
       style="fill:#ffffff;stroke:#ffffff;stroke-width:3.13417503;stroke-miterlimit:4;stroke-dasharray:none" />
    <path
       d="m 307.9192,63.284835 c 3.98972,1.112787 8.12643,-1.219599 9.23921,-5.20932 l 11.2837,-40.45588 c 1.11278,-3.989721 -1.2196,-8.1264228 -5.20932,-9.2392098 -3.98972,-1.112787 -8.12643,1.2195988 -9.23921,5.2093188 l -11.2837,40.455881 c -1.11278,3.98972 1.2196,8.126423 5.20932,9.23921 z"
       id="path12"
       inkscape:connector-curvature="0"
       style="fill:#ffffff;stroke:#ffffff;stroke-width:3.13417503;stroke-miterlimit:4;stroke-dasharray:none" />
    <path
       d="m 230.85123,57.175184 c 0.69224,2.691944 2.75824,4.664517 5.25495,5.360882 1.22523,0.341734 2.55485,0.376217 3.87566,0.03658 4.01152,-1.031179 6.42864,-5.119088 5.39746,-9.130607 L 234.92945,12.779643 c -1.03188,-4.0127505 -5.11909,-6.4286384 -9.13061,-5.3974593 -4.01152,1.0311791 -6.42864,5.1190883 -5.39746,9.1306063 z"
       id="path14"
       inkscape:connector-curvature="0"
       style="fill:#ffffff;stroke:#ffffff;stroke-width:3.13417503;stroke-miterlimit:4;stroke-dasharray:none" />
    <path
       d="m 404.51293,313.55164 -29.38407,-29.98676 c -2.89943,-2.95978 -7.64824,-3.00734 -10.60609,-0.10737 -2.95854,2.89873 -3.00706,7.64727 -0.10737,10.60608 l 29.38407,29.98676 c 0.95436,0.97421 2.10892,1.6326 3.33512,1.97461 2.49671,0.69636 5.28664,0.0771 7.27097,-1.86724 2.95854,-2.89873 3.0061,-7.64754 0.10737,-10.60608 z"
       id="path16"
       inkscape:connector-curvature="0"
       style="fill:#ffffff;stroke:#ffffff;stroke-width:3.13417503;stroke-miterlimit:4;stroke-dasharray:none" />
    <path
       d="m 140.80654,65.848714 29.38407,29.986762 c 0.95436,0.974214 2.10892,1.632604 3.33512,1.974607 2.49671,0.696365 5.28664,0.07714 7.27097,-1.867236 2.95854,-2.898731 3.00706,-7.647273 0.10737,-10.606083 L 151.51999,55.350002 c -2.89846,-2.959505 -7.64727,-3.007066 -10.60608,-0.107371 -2.95854,2.898731 -3.0068,7.64631 -0.10737,10.606083 z"
       id="path18"
       inkscape:connector-curvature="0"
       style="fill:#ffffff;stroke:#ffffff;stroke-width:3.13417503;stroke-miterlimit:4;stroke-dasharray:none" />
    <path
       d="m 448.76947,231.03279 -40.45588,-11.2837 c -3.98972,-1.11278 -8.12642,1.2196 -9.23921,5.20932 -1.11279,3.98972 1.2196,8.12643 5.20932,9.23921 l 40.45588,11.2837 c 3.98972,1.11278 8.12642,-1.2196 9.23921,-5.20932 1.11279,-3.98972 -1.21864,-8.12616 -5.20932,-9.23921 z"
       id="path20"
       inkscape:connector-curvature="0"
       style="fill:#ffffff;stroke:#ffffff;stroke-width:3.13417503;stroke-miterlimit:4;stroke-dasharray:none" />
    <path
       d="m 146.24439,154.44071 c 1.11279,-3.98972 -1.2196,-8.12643 -5.20932,-9.23921 l -40.45588,-11.2837 c -3.989721,-1.11278 -8.126424,1.2196 -9.239211,5.20932 -1.112787,3.98972 1.219599,8.12643 5.20932,9.23921 l 40.455881,11.2837 c 3.99069,1.11305 8.12642,-1.2196 9.23921,-5.20932 z"
       id="path22"
       inkscape:connector-curvature="0"
       style="fill:#ffffff;stroke:#ffffff;stroke-width:3.13417503;stroke-miterlimit:4;stroke-dasharray:none" />
    <path
       d="m 405.04221,162.38316 c 1.22524,0.34174 2.55486,0.37622 3.87566,0.0366 l 40.6624,-10.44985 c 4.01152,-1.03118 6.42864,-5.11909 5.39746,-9.13061 -1.03118,-4.01152 -5.12006,-6.42891 -9.13061,-5.39746 l -40.66239,10.44986 c -4.01152,1.03118 -6.42864,5.11908 -5.39746,9.1306 0.69154,2.69071 2.7592,4.66479 5.25494,5.36088 z"
       id="path24"
       inkscape:connector-curvature="0"
       style="fill:#ffffff;stroke:#ffffff;stroke-width:3.13417503;stroke-miterlimit:4;stroke-dasharray:none" />
    <path
       d="m 136.40159,216.98061 -40.662393,10.44985 c -4.011518,1.03118 -6.428638,5.11909 -5.397459,9.13061 0.691539,2.69071 2.75824,4.66452 5.254946,5.36088 1.225235,0.34174 2.554854,0.37622 3.875661,0.0366 L 140.13474,231.5087 c 4.01152,-1.03118 6.42864,-5.11909 5.39746,-9.13061 -1.02995,-4.01221 -5.12101,-6.42918 -9.13061,-5.39746 z"
       id="path26"
       inkscape:connector-curvature="0"
       style="fill:#ffffff;stroke:#ffffff;stroke-width:3.13417503;stroke-miterlimit:4;stroke-dasharray:none" />
    <path
       d="m 366.41706,97.837138 c 0.95436,0.974214 2.10892,1.632604 3.33512,1.974607 2.49671,0.696365 5.28664,0.07714 7.27097,-1.867235 l 29.98676,-29.384074 c 2.95854,-2.898732 3.0061,-7.647543 0.10737,-10.606084 -2.89777,-2.958273 -7.64727,-3.007066 -10.60608,-0.107371 l -29.98677,29.384074 c -2.95854,2.898731 -3.0061,7.647542 -0.10737,10.606083 z"
       id="path28"
       inkscape:connector-curvature="0"
       style="fill:#ffffff;stroke:#ffffff;stroke-width:3.13417503;stroke-miterlimit:4;stroke-dasharray:none" />
  </g>
</svg>
